<?xml version="1.0" standalone="no"?>
<!DOCTYPE svg PUBLIC "-//W3C//DTD SVG 20010904//EN"
 "http://www.w3.org/TR/2001/REC-SVG-20010904/DTD/svg10.dtd">
<svg version="1.0" xmlns="http://www.w3.org/2000/svg"
 width="960.000000pt" height="960.000000pt" viewBox="0 0 960.000000 960.000000"
 preserveAspectRatio="xMidYMid meet">
<metadata>
Created by potrace 1.14, written by Peter Selinger 2001-2017
</metadata>
<g transform="translate(0.000000,960.000000) scale(0.100000,-0.100000)"
fill="#000000" stroke="none">
<path d="M87 8100 c-32 -13 -66 -44 -76 -68 -8 -19 -11 -347 -9 -1174 l3
-1148 33 -32 c29 -29 39 -33 87 -33 48 0 58 4 87 33 l33 32 5 1073 5 1072 895
0 896 0 35 40 c143 159 179 201 179 205 0 7 -2157 7 -2173 0z"/>
<path d="M7357 8075 c14 -16 54 -62 89 -101 35 -39 72 -82 83 -95 l19 -24 899
0 898 0 2 -1063 1 -1063 24 -35 c45 -68 152 -68 202 -1 21 28 21 29 22 1170 2
1245 4 1184 -54 1224 -25 16 -89 17 -1118 18 l-1092 0 25 -30z"/>
<path d="M4608 7965 c-2 -1 -48 -5 -104 -9 -55 -4 -109 -8 -121 -10 -11 -2
-44 -7 -73 -11 -29 -4 -60 -8 -69 -10 -9 -1 -54 -10 -101 -19 -117 -22 -117
-22 -190 -41 -232 -59 -451 -148 -620 -251 -104 -64 -149 -98 -150 -113 0 -8
34 -147 76 -310 42 -163 77 -303 79 -311 5 -20 84 -330 141 -550 87 -336 227
-885 233 -913 3 -15 11 -27 16 -27 6 1 165 153 354 338 189 185 389 381 445
436 55 54 270 264 476 466 206 202 431 423 500 490 501 490 579 569 567 578
-58 45 -385 164 -517 188 -14 3 -41 9 -60 14 -61 16 -191 36 -355 55 -59 7
-520 16 -527 10z"/>
<path d="M6280 7550 c-33 -36 -271 -286 -410 -431 -36 -37 -122 -128 -191
-201 -189 -199 -224 -236 -303 -318 -445 -466 -556 -584 -552 -587 1 -1 51
-15 111 -32 61 -16 268 -73 460 -126 193 -53 357 -98 365 -100 8 -2 74 -20
145 -40 72 -20 153 -42 180 -50 28 -7 192 -53 365 -100 173 -48 338 -93 365
-100 28 -8 183 -50 345 -95 615 -170 799 -220 805 -220 9 0 -9 98 -60 340 -12
58 -64 235 -100 340 -132 383 -332 737 -587 1035 -130 152 -362 366 -542 499
-78 58 -281 193 -323 215 -31 16 -34 14 -73 -29z"/>
<path d="M2860 7314 c-36 -31 -90 -76 -120 -102 -94 -80 -292 -282 -383 -391
-192 -229 -366 -509 -461 -741 -15 -36 -33 -78 -41 -95 -33 -75 -123 -359
-139 -438 -3 -12 -14 -65 -24 -117 -23 -107 -29 -146 -38 -222 -3 -29 -7 -58
-9 -65 -8 -26 -19 -162 -18 -236 0 -66 4 -83 27 -117 43 -66 92 -86 431 -179
121 -34 243 -67 270 -75 28 -8 131 -37 230 -65 99 -27 263 -73 365 -101 102
-29 214 -60 250 -70 36 -10 133 -36 215 -59 83 -23 157 -44 165 -46 8 -2 42
-11 75 -20 33 -9 68 -18 78 -20 9 -2 21 -6 26 -9 4 -3 -12 72 -36 167 -25 94
-46 179 -48 187 -2 8 -22 87 -45 175 -23 88 -43 167 -45 175 -4 18 -171 674
-219 860 -61 238 -208 814 -211 830 -2 8 -12 49 -23 90 -11 41 -55 212 -97
380 -76 306 -92 360 -104 359 -3 0 -35 -25 -71 -55z"/>
<path d="M5854 5408 c4 -13 9 -34 12 -47 3 -14 14 -57 25 -97 11 -40 22 -81
23 -91 2 -10 39 -153 81 -318 42 -165 78 -307 80 -315 2 -8 22 -87 44 -175 23
-88 82 -317 131 -510 175 -688 199 -783 336 -1310 31 -121 61 -239 66 -262 5
-24 12 -43 14 -43 16 0 79 41 144 94 110 88 394 376 483 488 317 401 506 801
616 1303 11 50 23 113 26 140 4 28 8 57 10 65 2 8 7 47 11 85 3 39 8 79 10 90
9 45 16 257 10 289 -4 20 -18 49 -32 65 -29 35 -59 45 -474 156 -268 72 -430
117 -545 150 -46 13 -568 156 -655 180 -177 47 -224 57 -325 70 -27 3 -61 8
-74 11 -21 4 -23 2 -17 -18z"/>
<path d="M1650 4418 c5 -24 11 -63 15 -88 3 -25 8 -52 10 -60 2 -8 7 -30 10
-47 3 -18 12 -63 21 -100 9 -38 17 -75 19 -83 2 -8 17 -64 35 -125 123 -421
312 -787 578 -1120 67 -83 346 -364 417 -421 28 -21 52 -41 55 -44 3 -3 25
-21 50 -40 25 -19 47 -37 50 -41 3 -3 21 -17 41 -30 20 -13 70 -47 110 -75 41
-28 104 -70 141 -92 l66 -41 24 23 c13 12 100 102 193 200 94 99 188 198 210
221 22 23 87 91 145 152 194 203 417 438 461 484 24 26 120 126 212 222 92 96
190 199 217 228 l49 53 -192 53 c-106 30 -255 71 -332 93 -77 21 -246 68 -375
104 -129 35 -424 117 -655 181 -231 64 -431 119 -444 122 -14 2 -28 6 -33 9
-4 3 -16 7 -27 9 -10 2 -59 15 -107 29 -91 26 -267 75 -294 81 -8 2 -71 20
-140 40 -69 19 -134 37 -145 40 -11 2 -101 27 -199 55 -99 27 -183 50 -187 50
-3 0 -3 -19 1 -42z"/>
<path d="M5734 4094 c-77 -80 -161 -170 -189 -199 -27 -29 -120 -126 -205
-215 -85 -90 -195 -206 -245 -258 -49 -52 -112 -118 -140 -147 -27 -28 -120
-125 -205 -215 -85 -90 -175 -184 -200 -210 -25 -26 -115 -121 -200 -211 -85
-90 -196 -206 -246 -259 -51 -52 -111 -116 -135 -141 -24 -26 -114 -120 -199
-209 -85 -89 -155 -167 -155 -173 0 -6 34 -24 75 -39 95 -36 363 -115 414
-122 21 -4 42 -8 46 -11 6 -4 181 -33 290 -49 179 -25 544 -25 725 0 73 10
100 14 125 19 14 3 40 7 58 10 71 11 95 16 155 31 34 8 73 17 87 20 14 2 36 9
50 14 14 4 59 18 100 31 67 20 202 67 255 89 11 5 45 19 75 31 129 55 311 151
326 173 31 49 28 85 -31 311 -31 121 -59 227 -60 235 -10 41 -117 459 -125
485 -5 17 -12 41 -14 55 -6 27 -60 240 -126 495 -23 88 -44 169 -46 180 -2 11
-10 43 -18 70 -12 42 -68 250 -71 265 -1 3 -5 22 -9 43 -5 20 -12 39 -16 42
-4 3 -70 -61 -146 -141z"/>
<path d="M72 3934 c-17 -7 -41 -28 -52 -46 -20 -33 -20 -48 -20 -1174 l0
-1141 23 -34 c12 -18 34 -39 47 -46 20 -10 262 -13 1108 -13 658 0 1082 4
1080 9 -1 5 -21 29 -43 53 -22 24 -69 76 -104 116 l-63 72 -899 0 -899 0 0
1061 c0 1059 0 1062 -21 1095 -11 19 -30 39 -40 45 -31 16 -83 18 -117 3z"/>
<path d="M9420 3932 c-18 -9 -42 -29 -53 -43 -19 -26 -19 -55 -19 -1093 l0
-1066 -897 0 -898 0 -44 -47 c-24 -27 -75 -83 -113 -125 l-68 -78 1088 0
c1075 0 1089 0 1122 20 18 11 39 35 46 53 11 26 13 251 12 1172 -1 1070 -2
1142 -19 1166 -34 50 -103 68 -157 41z"/>
</g>
</svg>
