<svg id="Calque_1" data-name="Calque 1" xmlns="http://www.w3.org/2000/svg" xmlns:xlink="http://www.w3.org/1999/xlink" viewBox="0 0 512 512"><defs><style>.cls-1,.cls-18,.cls-8{fill:none;}.cls-2{font-size:75px;font-family:Lora-SemiBold, Lora;font-weight:600;}.cls-3{letter-spacing:-0.01em;}.cls-4{letter-spacing:-0.01em;}.cls-5{letter-spacing:0em;}.cls-6{font-size:24px;font-family:Comfortaa-Light, Comfortaa;font-weight:300;}.cls-7{clip-path:url(#clip-path);}.cls-18,.cls-8{stroke:#000;stroke-linecap:round;}.cls-8{stroke-linejoin:round;stroke-width:6px;}.cls-9{clip-path:url(#clip-path-2);}.cls-10{clip-path:url(#clip-path-3);}.cls-11{clip-path:url(#clip-path-4);}.cls-12{fill:#2671b2;}.cls-13{fill:#008e5c;}.cls-14{fill:#fffd37;}.cls-15{fill:#ff8a02;}.cls-16{fill:#fc0d1b;}.cls-17{fill:#a100fe;}.cls-18{stroke-miterlimit:10;stroke-width:2px;}</style><clipPath id="clip-path"><polygon class="cls-1" points="171.79 142.14 205.43 104.33 130.14 104.33 130.14 194.41 164.99 192.44 171.79 142.14"/></clipPath><clipPath id="clip-path-2"><polygon class="cls-1" points="340.02 142.14 306.37 104.33 381.66 104.33 381.66 194.41 346.81 192.44 340.02 142.14"/></clipPath><clipPath id="clip-path-3"><polygon class="cls-1" points="171.79 248.69 205.43 286.5 130.14 286.5 130.14 196.41 164.99 198.38 171.79 248.69"/></clipPath><clipPath id="clip-path-4"><polygon class="cls-1" points="340.02 248.69 306.37 286.5 381.66 286.5 381.66 196.41 346.81 198.38 340.02 248.69"/></clipPath></defs><title>logo_photoshoot_desktop--noir</title><text class="cls-2" transform="translate(53.76 359.76)"><tspan class="cls-3">P</tspan><tspan x="46.65" y="0">hot</tspan><tspan class="cls-4" x="165.9" y="0">o</tspan><tspan class="cls-5" x="208.27" y="0">S</tspan><tspan x="252.15" y="0">hoot</tspan></text><text class="cls-6" transform="translate(182.35 397.53)">Studio Photo</text><g class="cls-7"><polyline class="cls-8" points="143.73 172.08 143.73 118.9 199.84 118.9"/></g><g class="cls-9"><polyline class="cls-8" points="368.07 172.08 368.07 118.9 311.96 118.9"/></g><g class="cls-10"><polyline class="cls-8" points="143.73 218.74 143.73 271.92 199.84 271.92"/></g><g class="cls-11"><polyline class="cls-8" points="368.07 218.74 368.07 271.92 311.96 271.92"/></g><path class="cls-12" d="M300.69,256.68c-6.5-25.47-12.93-50.62-19.54-76.5,2.68.43,4.66.58,6.54,1.09,13.71,3.72,27.37,7.55,41.09,11.22,2.47.66,3.57,1.65,3.47,4.44-.86,24.11-10.8,43.59-29.54,58.66A15.23,15.23,0,0,1,300.69,256.68Z"/><path class="cls-13" d="M231.07,210.93c-14.57-4-28.35-7.84-42.11-11.67-9.79-2.72-9.93-2.76-8.66-12.76,2.77-21.68,12.89-39.14,31-53C217.91,159.45,224.4,184.82,231.07,210.93Z"/><path class="cls-14" d="M219.22,262.14c-22.4-13.28-35.27-32.38-39.05-58.76l75.17,20.84Z"/><path class="cls-15" d="M332,186.88,256.44,166.1l36.09-37.9C315.15,141.51,328,160.59,332,186.88Z"/><path class="cls-16" d="M286.63,125.88,230,181.31l-13.05-51C232.58,117.68,267.32,115.31,286.63,125.88Z"/><path class="cls-17" d="M281.85,208.57c2.11,8.16,3.91,15,5.67,21.93,2.3,8.92,4.54,17.85,6.86,26.77.55,2.09.83,3.66-1.67,5-21.87,11.35-44.12,12.17-65.49,3.72Z"/><line class="cls-18" x1="58.32" y1="390.13" x2="168.53" y2="390.13"/><line class="cls-18" x1="357.44" y1="390.13" x2="467.65" y2="390.13"/></svg>