<?xml version="1.0" encoding="utf-8"?>
<!-- Generator: Adobe Illustrator 24.0.1, SVG Export Plug-In . SVG Version: 6.00 Build 0)  -->
<svg version="1.1" id="Capa_1" xmlns="http://www.w3.org/2000/svg" xmlns:xlink="http://www.w3.org/1999/xlink" x="0px" y="0px"
	 viewBox="0 0 45.5 45.5" style="enable-background:new 0 0 45.5 45.5;" xml:space="preserve">
<style type="text/css">
	.st0{fill:#F54B55;stroke:#424242;stroke-width:2;stroke-miterlimit:10;}
	.st1{fill:#FFFFFF;}
	.st2{fill:#424242;}
</style>
<circle class="st0" cx="22.8" cy="22.8" r="21.6"/>
<path class="st1" d="M12.3,34.6l1-4.9l3.5-2.8l2.7-0.8l3.8-0.5l3.2,0.2c0,0,2.6,1.2,2.7,1.2s2.3,1.6,2.3,1.6l1.4,3.8l0.7,2.3
	L12.3,34.6z"/>
<g>
	<g>
		<g>
			<path class="st2" d="M31.2,27.9C29.3,26,26.9,25,24.3,25h-3c-2.6,0-5.1,1-6.9,2.9c-1.8,1.9-2.9,4.3-2.9,7c0,0.4,0.3,0.8,0.8,0.8
				h21.1c0.4,0,0.8-0.3,0.8-0.8C34.1,32.2,33,29.8,31.2,27.9z M13,34.1c0.4-4.3,3.9-7.6,8.3-7.6h3c4.3,0,7.9,3.4,8.3,7.6H13z"/>
		</g>
	</g>
</g>
<circle class="st1" cx="22.8" cy="16.7" r="5.6"/>
<g>
	<g>
		<g>
			<path class="st2" d="M22.8,9.9c-3.7,0-6.8,3-6.8,6.8s3,6.8,6.8,6.8s6.8-3,6.8-6.8S26.5,9.9,22.8,9.9z M22.8,22
				c-2.9,0-5.3-2.4-5.3-5.3s2.4-5.3,5.3-5.3s5.3,2.4,5.3,5.3S25.7,22,22.8,22z"/>
		</g>
	</g>
</g>
</svg>
